<svg width="167" height="167" viewBox="0 0 167 167" fill="none" xmlns="http://www.w3.org/2000/svg">
<path d="M127.41 152.246C114.551 160.48 99.6521 164.97 84.3842 165.213C69.1162 165.456 54.0822 161.442 40.9673 153.621C43.2744 149.327 46.1978 145.393 49.6443 141.945C54.9621 136.602 61.4338 132.549 68.5624 130.097C75.691 127.645 83.2868 126.861 90.7661 127.803C98.2454 128.745 105.409 131.389 111.707 135.532C118.005 139.675 123.27 145.206 127.096 151.701C127.197 151.877 127.308 152.061 127.41 152.246V152.246Z" fill="#6C63FF"/>
<path d="M106.938 96.0839C114.983 81.3683 109.574 62.9178 94.8588 54.8735C80.1433 46.8293 61.6927 52.2374 53.6484 66.953C45.6042 81.6686 51.0124 100.119 65.728 108.163C80.4435 116.208 98.894 110.799 106.938 96.0839Z" fill="#FCC19A"/>
<path d="M52.6589 63.1904C59.598 67.973 67.8342 70.5184 76.2617 70.4847C73.2555 72.5692 69.8332 73.9772 66.2305 74.6117C77.4355 77.0153 89.0161 77.0803 100.247 74.8028C102.744 74.4025 105.153 73.5752 107.369 72.357C108.473 71.7404 109.435 70.8983 110.192 69.8855C110.949 68.8727 111.485 67.7119 111.764 66.4785C112.51 62.2149 109.188 58.3413 105.736 55.7308C100.45 51.7948 94.3547 49.083 87.892 47.7916C81.4292 46.5001 74.7602 46.6614 68.3674 48.2636C64.1932 49.3426 60.0115 51.1656 57.3002 54.5179C54.5889 57.8702 53.7858 63.0382 56.3689 66.4902L52.6589 63.1904Z" fill="#2F2E41"/>
<path d="M83.0801 0C61.0551 0.0244835 39.9392 8.784 24.3643 24.3571C8.78931 39.9301 0.0271612 61.0451 0 83.07C0.00338582 89.7889 0.829495 96.482 2.45996 103C2.62986 103.67 2.79988 104.34 2.97998 105C7.77198 122.569 18.2102 138.075 32.6854 149.125C47.1606 160.176 64.8689 166.158 83.0801 166.15C101.295 166.15 119.005 160.165 133.486 149.116C147.968 138.068 158.418 122.568 163.23 105C163.41 104.33 163.58 103.67 163.74 103C166.753 90.7627 166.943 78.0006 164.298 65.6787C161.653 53.3568 156.24 41.7977 148.47 31.8754C140.7 21.9531 130.775 13.9274 119.447 8.40521C108.119 2.88299 95.6827 0.008812 83.0801 0ZM161.84 103C161.68 103.67 161.5 104.34 161.31 105C157.936 117.016 151.84 128.094 143.494 137.374C135.148 146.654 124.777 153.887 113.185 158.513C101.593 163.138 89.0911 165.032 76.6492 164.046C64.2072 163.061 52.1595 159.223 41.4401 152.83C23.6245 142.109 10.5594 125.007 4.90002 105C4.71002 104.33 4.52979 103.67 4.35999 103C2.69351 96.4877 1.85036 89.7921 1.85022 83.07C1.86317 71.5634 4.32075 60.1909 9.06018 49.7057C13.7996 39.2206 20.7127 29.862 29.3416 22.25C37.9705 14.6379 48.1182 8.94613 59.1127 5.55154C70.1071 2.15696 81.6974 1.13706 93.1157 2.55945C104.534 3.98183 115.52 7.81403 125.345 13.8022C135.171 19.7903 143.612 27.7978 150.11 37.2942C156.608 46.7905 161.014 57.5591 163.036 68.8866C165.058 80.214 164.65 91.8419 161.84 103V103Z" fill="#3F3D56"/>
<path d="M55.6472 65.7C55.8962 65.7 56.098 65.4982 56.098 65.2493C56.098 65.0004 55.8962 64.7986 55.6472 64.7986C55.3983 64.7986 55.1965 65.0004 55.1965 65.2493C55.1965 65.4982 55.3983 65.7 55.6472 65.7Z" fill="black"/>
<path d="M56.7023 66.3185C56.9512 66.3185 57.153 66.1166 57.153 65.8677C57.153 65.6188 56.9512 65.417 56.7023 65.417C56.4533 65.417 56.2515 65.6188 56.2515 65.8677C56.2515 66.1166 56.4533 66.3185 56.7023 66.3185Z" fill="black"/>
<path d="M57.9752 66.9005C58.2242 66.9005 58.4259 66.6987 58.4259 66.4497C58.4259 66.2008 58.2242 65.999 57.9752 65.999C57.7263 65.999 57.5244 66.2008 57.5244 66.4497C57.5244 66.6987 57.7263 66.9005 57.9752 66.9005Z" fill="black"/>
<path d="M59.3575 67.4098C59.6065 67.4098 59.8082 67.208 59.8082 66.959C59.8082 66.7101 59.6065 66.5083 59.3575 66.5083C59.1086 66.5083 58.9067 66.7101 58.9067 66.959C58.9067 67.208 59.1086 67.4098 59.3575 67.4098Z" fill="black"/>
<path d="M58.1207 68.1009C58.3697 68.1009 58.5714 67.8991 58.5714 67.6502C58.5714 67.4012 58.3697 67.1994 58.1207 67.1994C57.8718 67.1994 57.6699 67.4012 57.6699 67.6502C57.6699 67.8991 57.8718 68.1009 58.1207 68.1009Z" fill="black"/>
<path d="M56.8839 67.7372C57.1329 67.7372 57.3346 67.5353 57.3346 67.2864C57.3346 67.0375 57.1329 66.8357 56.8839 66.8357C56.635 66.8357 56.4331 67.0375 56.4331 67.2864C56.4331 67.5353 56.635 67.7372 56.8839 67.7372Z" fill="black"/>
<path d="M55.6836 67.1915C55.9325 67.1915 56.1344 66.9897 56.1344 66.7408C56.1344 66.4918 55.9325 66.29 55.6836 66.29C55.4347 66.29 55.2329 66.4918 55.2329 66.7408C55.2329 66.9897 55.4347 67.1915 55.6836 67.1915Z" fill="black"/>
<path d="M55.6836 67.1915C55.9325 67.1915 56.1344 66.9897 56.1344 66.7408C56.1344 66.4918 55.9325 66.29 55.6836 66.29C55.4347 66.29 55.2329 66.4918 55.2329 66.7408C55.2329 66.9897 55.4347 67.1915 55.6836 67.1915Z" fill="black"/>
<path d="M54.3741 67.7008C54.6231 67.7008 54.825 67.499 54.825 67.25C54.825 67.0011 54.6231 66.7993 54.3741 66.7993C54.1252 66.7993 53.9233 67.0011 53.9233 67.25C53.9233 67.499 54.1252 67.7008 54.3741 67.7008Z" fill="black"/>
<path d="M55.4288 68.3192C55.6778 68.3192 55.8795 68.1174 55.8795 67.8684C55.8795 67.6195 55.6778 67.4177 55.4288 67.4177C55.1799 67.4177 54.978 67.6195 54.978 67.8684C54.978 68.1174 55.1799 68.3192 55.4288 68.3192Z" fill="black"/>
<path d="M56.7023 68.9012C56.9512 68.9012 57.153 68.6994 57.153 68.4505C57.153 68.2015 56.9512 67.9997 56.7023 67.9997C56.4533 67.9997 56.2515 68.2015 56.2515 68.4505C56.2515 68.6994 56.4533 68.9012 56.7023 68.9012Z" fill="black"/>
<path d="M58.0845 69.4105C58.3334 69.4105 58.5353 69.2087 58.5353 68.9597C58.5353 68.7108 58.3334 68.509 58.0845 68.509C57.8355 68.509 57.6338 68.7108 57.6338 68.9597C57.6338 69.2087 57.8355 69.4105 58.0845 69.4105Z" fill="black"/>
<path d="M56.8478 70.1017C57.0967 70.1017 57.2985 69.8999 57.2985 69.6509C57.2985 69.402 57.0967 69.2002 56.8478 69.2002C56.5988 69.2002 56.397 69.402 56.397 69.6509C56.397 69.8999 56.5988 70.1017 56.8478 70.1017Z" fill="black"/>
<path d="M55.611 69.7379C55.8599 69.7379 56.0616 69.5361 56.0616 69.2871C56.0616 69.0382 55.8599 68.8364 55.611 68.8364C55.362 68.8364 55.1602 69.0382 55.1602 69.2871C55.1602 69.5361 55.362 69.7379 55.611 69.7379Z" fill="black"/>
<path d="M54.4104 69.1922C54.6593 69.1922 54.8612 68.9904 54.8612 68.7415C54.8612 68.4925 54.6593 68.2907 54.4104 68.2907C54.1615 68.2907 53.9597 68.4925 53.9597 68.7415C53.9597 68.9904 54.1615 69.1922 54.4104 69.1922Z" fill="black"/>
<path d="M54.4104 69.1922C54.6593 69.1922 54.8612 68.9904 54.8612 68.7415C54.8612 68.4925 54.6593 68.2907 54.4104 68.2907C54.1615 68.2907 53.9597 68.4925 53.9597 68.7415C53.9597 68.9904 54.1615 69.1922 54.4104 69.1922Z" fill="black"/>
<path d="M59.3942 68.5738C59.6431 68.5738 59.8448 68.372 59.8448 68.1231C59.8448 67.8741 59.6431 67.6723 59.3942 67.6723C59.1452 67.6723 58.9434 67.8741 58.9434 68.1231C58.9434 68.372 59.1452 68.5738 59.3942 68.5738Z" fill="black"/>
<path d="M60.449 69.1922C60.6979 69.1922 60.8998 68.9904 60.8998 68.7415C60.8998 68.4925 60.6979 68.2907 60.449 68.2907C60.2 68.2907 59.9983 68.4925 59.9983 68.7415C59.9983 68.9904 60.2 69.1922 60.449 69.1922Z" fill="black"/>
<path d="M61.7223 69.7743C61.9712 69.7743 62.173 69.5725 62.173 69.3235C62.173 69.0746 61.9712 68.8728 61.7223 68.8728C61.4733 68.8728 61.2715 69.0746 61.2715 69.3235C61.2715 69.5725 61.4733 69.7743 61.7223 69.7743Z" fill="black"/>
<path d="M63.1045 70.2835C63.3534 70.2835 63.5553 70.0817 63.5553 69.8328C63.5553 69.5839 63.3534 69.382 63.1045 69.382C62.8556 69.382 62.6538 69.5839 62.6538 69.8328C62.6538 70.0817 62.8556 70.2835 63.1045 70.2835Z" fill="black"/>
<path d="M61.8677 70.9747C62.1166 70.9747 62.3185 70.7729 62.3185 70.524C62.3185 70.275 62.1166 70.0732 61.8677 70.0732C61.6187 70.0732 61.417 70.275 61.417 70.524C61.417 70.7729 61.6187 70.9747 61.8677 70.9747Z" fill="black"/>
<path d="M60.631 70.6109C60.8799 70.6109 61.0817 70.4091 61.0817 70.1602C61.0817 69.9112 60.8799 69.7094 60.631 69.7094C60.382 69.7094 60.1802 69.9112 60.1802 70.1602C60.1802 70.4091 60.382 70.6109 60.631 70.6109Z" fill="black"/>
<path d="M59.4303 70.0653C59.6792 70.0653 59.8811 69.8635 59.8811 69.6145C59.8811 69.3656 59.6792 69.1638 59.4303 69.1638C59.1814 69.1638 58.9795 69.3656 58.9795 69.6145C58.9795 69.8635 59.1814 70.0653 59.4303 70.0653Z" fill="black"/>
<path d="M59.4303 70.0653C59.6792 70.0653 59.8811 69.8635 59.8811 69.6145C59.8811 69.3656 59.6792 69.1638 59.4303 69.1638C59.1814 69.1638 58.9795 69.3656 58.9795 69.6145C58.9795 69.8635 59.1814 70.0653 59.4303 70.0653Z" fill="black"/>
<path d="M58.23 70.6109C58.4789 70.6109 58.6808 70.4091 58.6808 70.1602C58.6808 69.9112 58.4789 69.7094 58.23 69.7094C57.981 69.7094 57.7793 69.9112 57.7793 70.1602C57.7793 70.4091 57.981 70.6109 58.23 70.6109Z" fill="black"/>
<path d="M59.2849 71.2293C59.5339 71.2293 59.7357 71.0275 59.7357 70.7786C59.7357 70.5297 59.5339 70.3279 59.2849 70.3279C59.036 70.3279 58.8342 70.5297 58.8342 70.7786C58.8342 71.0275 59.036 71.2293 59.2849 71.2293Z" fill="black"/>
<path d="M60.5581 71.8114C60.807 71.8114 61.0089 71.6096 61.0089 71.3606C61.0089 71.1117 60.807 70.9099 60.5581 70.9099C60.3092 70.9099 60.1074 71.1117 60.1074 71.3606C60.1074 71.6096 60.3092 71.8114 60.5581 71.8114Z" fill="black"/>
<path d="M61.9406 72.3206C62.1895 72.3206 62.3912 72.1188 62.3912 71.8699C62.3912 71.621 62.1895 71.4192 61.9406 71.4192C61.6916 71.4192 61.4897 71.621 61.4897 71.8699C61.4897 72.1188 61.6916 72.3206 61.9406 72.3206Z" fill="black"/>
<path d="M60.7036 73.0118C60.9526 73.0118 61.1544 72.81 61.1544 72.5611C61.1544 72.3121 60.9526 72.1103 60.7036 72.1103C60.4547 72.1103 60.2529 72.3121 60.2529 72.5611C60.2529 72.81 60.4547 73.0118 60.7036 73.0118Z" fill="black"/>
<path d="M59.4668 72.648C59.7157 72.648 59.9176 72.4462 59.9176 72.1973C59.9176 71.9484 59.7157 71.7466 59.4668 71.7466C59.2179 71.7466 59.0161 71.9484 59.0161 72.1973C59.0161 72.4462 59.2179 72.648 59.4668 72.648Z" fill="black"/>
<path d="M58.2662 72.1024C58.5152 72.1024 58.7169 71.9006 58.7169 71.6516C58.7169 71.4027 58.5152 71.2009 58.2662 71.2009C58.0173 71.2009 57.8154 71.4027 57.8154 71.6516C57.8154 71.9006 58.0173 72.1024 58.2662 72.1024Z" fill="black"/>
<path d="M58.2662 72.1024C58.5152 72.1024 58.7169 71.9006 58.7169 71.6516C58.7169 71.4027 58.5152 71.2009 58.2662 71.2009C58.0173 71.2009 57.8154 71.4027 57.8154 71.6516C57.8154 71.9006 58.0173 72.1024 58.2662 72.1024Z" fill="black"/>
<path d="M53.3556 69.8834C53.6045 69.8834 53.8063 69.6816 53.8063 69.4326C53.8063 69.1837 53.6045 68.9819 53.3556 68.9819C53.1066 68.9819 52.9048 69.1837 52.9048 69.4326C52.9048 69.6816 53.1066 69.8834 53.3556 69.8834Z" fill="black"/>
<path d="M54.4104 70.5018C54.6593 70.5018 54.8612 70.3 54.8612 70.0511C54.8612 69.8021 54.6593 69.6003 54.4104 69.6003C54.1615 69.6003 53.9597 69.8021 53.9597 70.0511C53.9597 70.3 54.1615 70.5018 54.4104 70.5018Z" fill="black"/>
<path d="M55.6836 71.0838C55.9325 71.0838 56.1344 70.882 56.1344 70.6331C56.1344 70.3841 55.9325 70.1823 55.6836 70.1823C55.4347 70.1823 55.2329 70.3841 55.2329 70.6331C55.2329 70.882 55.4347 71.0838 55.6836 71.0838Z" fill="black"/>
<path d="M57.066 71.5931C57.315 71.5931 57.5168 71.3913 57.5168 71.1424C57.5168 70.8934 57.315 70.6916 57.066 70.6916C56.8171 70.6916 56.6152 70.8934 56.6152 71.1424C56.6152 71.3913 56.8171 71.5931 57.066 71.5931Z" fill="black"/>
<path d="M55.8291 72.2843C56.078 72.2843 56.2799 72.0825 56.2799 71.8335C56.2799 71.5846 56.078 71.3828 55.8291 71.3828C55.5802 71.3828 55.3784 71.5846 55.3784 71.8335C55.3784 72.0825 55.5802 72.2843 55.8291 72.2843Z" fill="black"/>
<path d="M54.5923 71.9205C54.8412 71.9205 55.0431 71.7187 55.0431 71.4698C55.0431 71.2208 54.8412 71.019 54.5923 71.019C54.3433 71.019 54.1416 71.2208 54.1416 71.4698C54.1416 71.7187 54.3433 71.9205 54.5923 71.9205Z" fill="black"/>
<path d="M53.3917 71.3748C53.6407 71.3748 53.8424 71.173 53.8424 70.9241C53.8424 70.6752 53.6407 70.4734 53.3917 70.4734C53.1428 70.4734 52.9409 70.6752 52.9409 70.9241C52.9409 71.173 53.1428 71.3748 53.3917 71.3748Z" fill="black"/>
<path d="M53.3917 71.3748C53.6407 71.3748 53.8424 71.173 53.8424 70.9241C53.8424 70.6752 53.6407 70.4734 53.3917 70.4734C53.1428 70.4734 52.9409 70.6752 52.9409 70.9241C52.9409 71.173 53.1428 71.3748 53.3917 71.3748Z" fill="black"/>
<path d="M52.7794 72.8341C53.0253 72.7954 53.1933 72.5646 53.1546 72.3187C53.1159 72.0728 52.8851 71.9048 52.6392 71.9436C52.3933 71.9823 52.2252 72.213 52.264 72.4589C52.3027 72.7048 52.5335 72.8728 52.7794 72.8341Z" fill="black"/>
<path d="M53.9176 73.2809C54.1635 73.2422 54.3314 73.0114 54.2927 72.7655C54.2539 72.5196 54.0233 72.3516 53.7774 72.3904C53.5314 72.4291 53.3634 72.6598 53.4021 72.9057C53.4409 73.1517 53.6716 73.3196 53.9176 73.2809Z" fill="black"/>
<path d="M55.2657 73.6578C55.5116 73.6191 55.6795 73.3884 55.6408 73.1425C55.6021 72.8965 55.3714 72.7286 55.1255 72.7673C54.8796 72.806 54.7116 73.0367 54.7503 73.2827C54.789 73.5286 55.0198 73.6965 55.2657 73.6578Z" fill="black"/>
<path d="M56.7105 73.9459C56.9564 73.9072 57.1243 73.6765 57.0856 73.4305C57.0469 73.1846 56.8162 73.0167 56.5703 73.0554C56.3244 73.0941 56.1564 73.3248 56.1951 73.5707C56.2338 73.8167 56.4646 73.9846 56.7105 73.9459Z" fill="black"/>
<path d="M55.5963 74.821C55.8422 74.7823 56.0101 74.5516 55.9714 74.3057C55.9326 74.0597 55.702 73.8918 55.4561 73.9305C55.2102 73.9692 55.0421 74.2 55.0808 74.4459C55.1196 74.6918 55.3504 74.8597 55.5963 74.821Z" fill="black"/>
<path d="M54.318 74.654C54.5639 74.6153 54.7318 74.3846 54.693 74.1387C54.6543 73.8928 54.4237 73.7248 54.1777 73.7635C53.9318 73.8022 53.7638 74.033 53.8025 74.2789C53.8412 74.5248 54.072 74.6927 54.318 74.654Z" fill="black"/>
<path d="M53.0473 74.3017C53.2932 74.263 53.4613 74.0323 53.4225 73.7863C53.3838 73.5404 53.153 73.3725 52.9071 73.4112C52.6612 73.4499 52.4933 73.6806 52.532 73.9266C52.5707 74.1725 52.8014 74.3404 53.0473 74.3017Z" fill="black"/>
<path d="M53.0473 74.3017C53.2932 74.263 53.4613 74.0323 53.4225 73.7863C53.3838 73.5404 53.153 73.3725 52.9071 73.4112C52.6612 73.4499 52.4933 73.6806 52.532 73.9266C52.5707 74.1725 52.8014 74.3404 53.0473 74.3017Z" fill="black"/>
<path d="M51.8328 75.0085C52.0788 74.9698 52.2467 74.739 52.2079 74.4931C52.1692 74.2472 51.9385 74.0792 51.6926 74.118C51.4467 74.1567 51.2787 74.3874 51.3174 74.6333C51.3561 74.8793 51.5869 75.0472 51.8328 75.0085Z" fill="black"/>
<path d="M52.971 75.4553C53.2169 75.4166 53.3848 75.1859 53.3461 74.9399C53.3074 74.694 53.0767 74.5261 52.8308 74.5648C52.5849 74.6035 52.4169 74.8342 52.4556 75.0801C52.4943 75.3261 52.7251 75.494 52.971 75.4553Z" fill="black"/>
<path d="M54.3194 75.8322C54.5653 75.7935 54.7332 75.5628 54.6945 75.3169C54.6558 75.0709 54.4251 74.903 54.1792 74.9417C53.9333 74.9804 53.7653 75.2112 53.804 75.4571C53.8427 75.703 54.0735 75.8709 54.3194 75.8322Z" fill="black"/>
<path d="M55.7641 76.1203C56.01 76.0816 56.1781 75.8508 56.1393 75.6049C56.1006 75.359 55.8698 75.1911 55.6239 75.2298C55.378 75.2685 55.2101 75.4992 55.2488 75.7451C55.2875 75.991 55.5182 76.159 55.7641 76.1203Z" fill="black"/>
<path d="M54.6497 76.9954C54.8956 76.9567 55.0636 76.726 55.0248 76.4801C54.9861 76.2342 54.7554 76.0662 54.5095 76.1049C54.2636 76.1436 54.0956 76.3744 54.1343 76.6203C54.173 76.8662 54.4038 77.0341 54.6497 76.9954Z" fill="black"/>
<path d="M53.3714 76.8284C53.6173 76.7897 53.7852 76.559 53.7465 76.3131C53.7078 76.0672 53.4771 75.8992 53.2312 75.9379C52.9853 75.9766 52.8173 76.2074 52.856 76.4533C52.8947 76.6992 53.1255 76.8671 53.3714 76.8284Z" fill="black"/>
<path d="M52.1005 76.4761C52.3465 76.4374 52.5145 76.2067 52.4758 75.9608C52.437 75.7148 52.2062 75.5469 51.9603 75.5856C51.7144 75.6243 51.5465 75.855 51.5852 76.101C51.624 76.3469 51.8546 76.5148 52.1005 76.4761Z" fill="black"/>
<path d="M52.1005 76.4761C52.3465 76.4374 52.5145 76.2067 52.4758 75.9608C52.437 75.7148 52.2062 75.5469 51.9603 75.5856C51.7144 75.6243 51.5465 75.855 51.5852 76.101C51.624 76.3469 51.8546 76.5148 52.1005 76.4761Z" fill="black"/>
<path d="M56.9276 75.0901C57.1735 75.0514 57.3414 74.8207 57.3027 74.5748C57.2639 74.3289 57.0333 74.1609 56.7874 74.1996C56.5414 74.2383 56.3734 74.4691 56.4121 74.715C56.4509 74.9609 56.6817 75.1288 56.9276 75.0901Z" fill="black"/>
<path d="M58.0659 75.5369C58.3118 75.4982 58.4798 75.2675 58.4411 75.0216C58.4024 74.7757 58.1716 74.6077 57.9257 74.6464C57.6798 74.6851 57.5119 74.9159 57.5506 75.1618C57.5893 75.4077 57.82 75.5757 58.0659 75.5369Z" fill="black"/>
<path d="M59.4141 75.9139C59.6601 75.8752 59.828 75.6444 59.7892 75.3985C59.7505 75.1526 59.5198 74.9846 59.2739 75.0234C59.028 75.0621 58.86 75.2928 58.8987 75.5387C58.9374 75.7846 59.1682 75.9526 59.4141 75.9139Z" fill="black"/>
<path d="M60.8588 76.202C61.1048 76.1632 61.2728 75.9325 61.2341 75.6866C61.1953 75.4407 60.9645 75.2727 60.7186 75.3114C60.4727 75.3502 60.3048 75.5809 60.3435 75.8268C60.3823 76.0727 60.6129 76.2407 60.8588 76.202Z" fill="black"/>
<path d="M59.7446 77.0771C59.9905 77.0384 60.1585 76.8076 60.1198 76.5617C60.0811 76.3158 59.8503 76.1478 59.6044 76.1866C59.3585 76.2253 59.1906 76.456 59.2293 76.7019C59.268 76.9478 59.4987 77.1158 59.7446 77.0771Z" fill="black"/>
<path d="M58.4661 76.9101C58.7121 76.8714 58.88 76.6407 58.8412 76.3947C58.8025 76.1488 58.5718 75.9809 58.3259 76.0196C58.08 76.0583 57.912 76.289 57.9507 76.535C57.9894 76.7809 58.2202 76.9488 58.4661 76.9101Z" fill="black"/>
<path d="M57.1954 76.5578C57.4413 76.5191 57.6093 76.2883 57.5706 76.0424C57.5319 75.7965 57.3011 75.6285 57.0552 75.6673C56.8093 75.706 56.6412 75.9367 56.68 76.1826C56.7187 76.4285 56.9495 76.5965 57.1954 76.5578Z" fill="black"/>
<path d="M57.1954 76.5578C57.4413 76.5191 57.6093 76.2883 57.5706 76.0424C57.5319 75.7965 57.3011 75.6285 57.0552 75.6673C56.8093 75.706 56.6412 75.9367 56.68 76.1826C56.7187 76.4285 56.9495 76.5965 57.1954 76.5578Z" fill="black"/>
<path d="M56.0944 77.2835C56.3404 77.2448 56.5084 77.014 56.4697 76.7681C56.4309 76.5222 56.2001 76.3543 55.9542 76.393C55.7083 76.4317 55.5404 76.6624 55.5791 76.9083C55.6179 77.1542 55.8485 77.3222 56.0944 77.2835Z" fill="black"/>
<path d="M57.2329 77.7303C57.4788 77.6916 57.6468 77.4608 57.6081 77.2149C57.5694 76.969 57.3386 76.8011 57.0927 76.8398C56.8467 76.8785 56.6788 77.1092 56.7176 77.3551C56.7563 77.6011 56.987 77.769 57.2329 77.7303Z" fill="black"/>
<path d="M58.581 78.1072C58.8269 78.0685 58.9949 77.8378 58.9562 77.5919C58.9175 77.3459 58.6867 77.178 58.4408 77.2167C58.1949 77.2554 58.027 77.4862 58.0657 77.7321C58.1044 77.978 58.3351 78.1459 58.581 78.1072Z" fill="black"/>
<path d="M60.0257 78.3953C60.2716 78.3566 60.4395 78.1259 60.4008 77.88C60.3621 77.6341 60.1314 77.4661 59.8855 77.5048C59.6396 77.5435 59.4716 77.7743 59.5103 78.0202C59.549 78.2661 59.7798 78.434 60.0257 78.3953Z" fill="black"/>
<path d="M58.9113 79.2704C59.1572 79.2317 59.3253 79.001 59.2866 78.7551C59.2478 78.5092 59.017 78.3412 58.7711 78.3799C58.5252 78.4186 58.3573 78.6494 58.396 78.8953C58.4348 79.1412 58.6654 79.3092 58.9113 79.2704Z" fill="black"/>
<path d="M57.633 79.1034C57.8789 79.0647 58.0469 78.834 58.0082 78.5881C57.9695 78.3422 57.7387 78.1742 57.4928 78.2129C57.2469 78.2516 57.079 78.4824 57.1177 78.7283C57.1564 78.9742 57.3871 79.1422 57.633 79.1034Z" fill="black"/>
<path d="M56.3624 78.7512C56.6083 78.7124 56.7762 78.4817 56.7375 78.2358C56.6988 77.9899 56.4681 77.8219 56.2222 77.8606C55.9763 77.8994 55.8082 78.1301 55.847 78.376C55.8857 78.6219 56.1165 78.7899 56.3624 78.7512Z" fill="black"/>
<path d="M56.3624 78.7512C56.6083 78.7124 56.7762 78.4817 56.7375 78.2358C56.6988 77.9899 56.4681 77.8219 56.2222 77.8606C55.9763 77.8994 55.8082 78.1301 55.847 78.376C55.8857 78.6219 56.1165 78.7899 56.3624 78.7512Z" fill="black"/>
<path d="M51.166 77.323C51.4119 77.2842 51.5799 77.0535 51.5412 76.8076C51.5025 76.5617 51.2717 76.3937 51.0258 76.4324C50.7799 76.4712 50.612 76.7019 50.6507 76.9478C50.6894 77.1937 50.9201 77.3617 51.166 77.323Z" fill="black"/>
<path d="M52.3044 77.7698C52.5503 77.731 52.7183 77.5003 52.6796 77.2544C52.6409 77.0085 52.4101 76.8405 52.1642 76.8792C51.9183 76.918 51.7504 77.1487 51.7891 77.3946C51.8278 77.6405 52.0585 77.8085 52.3044 77.7698Z" fill="black"/>
<path d="M53.6525 78.1467C53.8985 78.108 54.0665 77.8772 54.0278 77.6313C53.989 77.3854 53.7582 77.2175 53.5123 77.2562C53.2664 77.2949 53.0985 77.5256 53.1372 77.7715C53.176 78.0174 53.4066 78.1854 53.6525 78.1467Z" fill="black"/>
<path d="M55.0972 78.4348C55.3432 78.3961 55.5112 78.1653 55.4725 77.9194C55.4337 77.6735 55.203 77.5055 54.957 77.5443C54.7111 77.583 54.5431 77.8137 54.5818 78.0596C54.6205 78.3056 54.8513 78.4735 55.0972 78.4348Z" fill="black"/>
<path d="M53.9829 79.3099C54.2288 79.2712 54.3968 79.0404 54.3581 78.7945C54.3194 78.5486 54.0886 78.3807 53.8427 78.4194C53.5967 78.4581 53.4288 78.6888 53.4676 78.9347C53.5063 79.1806 53.737 79.3486 53.9829 79.3099Z" fill="black"/>
<path d="M52.7045 79.1429C52.9505 79.1042 53.1185 78.8734 53.0798 78.6275C53.041 78.3816 52.8103 78.2137 52.5643 78.2524C52.3184 78.2911 52.1505 78.5218 52.1892 78.7677C52.228 79.0137 52.4586 79.1816 52.7045 79.1429Z" fill="black"/>
<path d="M51.4342 78.7906C51.6801 78.7519 51.848 78.5211 51.8093 78.2752C51.7705 78.0293 51.5399 77.8614 51.294 77.9001C51.048 77.9388 50.88 78.1695 50.9187 78.4154C50.9575 78.6614 51.1882 78.8293 51.4342 78.7906Z" fill="black"/>
<path d="M51.4342 78.7906C51.6801 78.7519 51.848 78.5211 51.8093 78.2752C51.7705 78.0293 51.5399 77.8614 51.294 77.9001C51.048 77.9388 50.88 78.1695 50.9187 78.4154C50.9575 78.6614 51.1882 78.8293 51.4342 78.7906Z" fill="black"/>
<path d="M108.544 72.7682C108.308 72.6872 108.183 72.4308 108.264 72.1954C108.345 71.96 108.601 71.8347 108.837 71.9157C109.072 71.9967 109.198 72.2532 109.117 72.4886C109.036 72.724 108.779 72.8492 108.544 72.7682Z" fill="black"/>
<path d="M107.345 73.0099C107.11 72.929 106.984 72.6725 107.065 72.4371C107.146 72.2017 107.403 72.0765 107.638 72.1574C107.874 72.2384 107.999 72.4949 107.918 72.7303C107.837 72.9657 107.58 73.0909 107.345 73.0099Z" fill="black"/>
<path d="M105.952 73.1462C105.717 73.0653 105.591 72.8088 105.672 72.5734C105.753 72.338 106.01 72.2128 106.245 72.2938C106.48 72.3747 106.606 72.6312 106.525 72.8666C106.444 73.102 106.187 73.2272 105.952 73.1462Z" fill="black"/>
<path d="M104.479 73.1783C104.243 73.0973 104.118 72.8409 104.199 72.6054C104.28 72.37 104.537 72.2449 104.772 72.3258C105.007 72.4068 105.133 72.6632 105.052 72.8986C104.971 73.134 104.714 73.2593 104.479 73.1783Z" fill="black"/>
<path d="M105.424 74.2341C105.188 74.1531 105.063 73.8967 105.144 73.6613C105.225 73.4259 105.482 73.3007 105.717 73.3816C105.952 73.4626 106.078 73.7191 105.997 73.9545C105.916 74.1899 105.659 74.3151 105.424 74.2341Z" fill="black"/>
<path d="M106.712 74.2923C106.476 74.2114 106.351 73.9549 106.432 73.7195C106.513 73.4841 106.769 73.3589 107.005 73.4398C107.24 73.5208 107.366 73.7773 107.285 74.0127C107.204 74.2481 106.947 74.3733 106.712 74.2923Z" fill="black"/>
<path d="M108.024 74.1668C107.789 74.0858 107.664 73.8293 107.745 73.5939C107.826 73.3585 108.082 73.2333 108.317 73.3143C108.553 73.3952 108.678 73.6517 108.597 73.8871C108.516 74.1225 108.26 74.2477 108.024 74.1668Z" fill="black"/>
<path d="M108.024 74.1668C107.789 74.0858 107.664 73.8293 107.745 73.5939C107.826 73.3585 108.082 73.2333 108.317 73.3143C108.553 73.3952 108.678 73.6517 108.597 73.8871C108.516 74.1225 108.26 74.2477 108.024 74.1668Z" fill="black"/>
<path d="M109.097 75.0742C108.862 74.9933 108.736 74.7368 108.817 74.5014C108.898 74.266 109.155 74.1408 109.39 74.2217C109.626 74.3027 109.751 74.5592 109.67 74.7946C109.589 75.03 109.332 75.1552 109.097 75.0742Z" fill="black"/>
<path d="M107.898 75.316C107.663 75.235 107.538 74.9786 107.619 74.7431C107.7 74.5077 107.956 74.3825 108.192 74.4635C108.427 74.5444 108.552 74.8009 108.471 75.0363C108.39 75.2717 108.134 75.3969 107.898 75.316Z" fill="black"/>
<path d="M106.505 75.4523C106.27 75.3713 106.145 75.1149 106.226 74.8795C106.306 74.6441 106.563 74.5188 106.798 74.5998C107.034 74.6807 107.159 74.9372 107.078 75.1726C106.997 75.408 106.741 75.5332 106.505 75.4523Z" fill="black"/>
<path d="M105.032 75.4843C104.797 75.4034 104.672 75.1469 104.753 74.9115C104.834 74.6761 105.09 74.5509 105.326 74.6318C105.561 74.7128 105.686 74.9692 105.605 75.2047C105.524 75.4401 105.268 75.5653 105.032 75.4843Z" fill="black"/>
<path d="M105.977 76.5401C105.742 76.4592 105.617 76.2027 105.698 75.9673C105.779 75.7319 106.035 75.6067 106.27 75.6877C106.506 75.7686 106.631 76.0251 106.55 76.2605C106.469 76.4959 106.213 76.6211 105.977 76.5401Z" fill="black"/>
<path d="M107.265 76.5984C107.029 76.5174 106.904 76.261 106.985 76.0256C107.066 75.7901 107.323 75.6649 107.558 75.7459C107.793 75.8268 107.919 76.0833 107.838 76.3187C107.757 76.5541 107.5 76.6793 107.265 76.5984Z" fill="black"/>
<path d="M108.578 76.4728C108.342 76.3918 108.217 76.1353 108.298 75.8999C108.379 75.6645 108.635 75.5393 108.871 75.6203C109.106 75.7013 109.231 75.9577 109.15 76.1931C109.069 76.4285 108.813 76.5538 108.578 76.4728Z" fill="black"/>
<path d="M108.578 76.4728C108.342 76.3918 108.217 76.1353 108.298 75.8999C108.379 75.6645 108.635 75.5393 108.871 75.6203C109.106 75.7013 109.231 75.9577 109.15 76.1931C109.069 76.4285 108.813 76.5538 108.578 76.4728Z" fill="black"/>
<path d="M104.066 74.2672C103.831 74.1863 103.706 73.9298 103.787 73.6944C103.868 73.459 104.124 73.3338 104.359 73.4148C104.595 73.4957 104.72 73.7522 104.639 73.9876C104.558 74.223 104.302 74.3482 104.066 74.2672Z" fill="black"/>
<path d="M102.867 74.509C102.632 74.428 102.507 74.1715 102.588 73.9361C102.669 73.7007 102.925 73.5755 103.16 73.6565C103.396 73.7374 103.521 73.9939 103.44 74.2293C103.359 74.4647 103.103 74.5899 102.867 74.509Z" fill="black"/>
<path d="M101.474 74.6453C101.239 74.5643 101.113 74.3078 101.194 74.0724C101.275 73.837 101.532 73.7118 101.767 73.7928C102.003 73.8738 102.128 74.1302 102.047 74.3656C101.966 74.601 101.709 74.7262 101.474 74.6453Z" fill="black"/>
<path d="M100.001 74.6773C99.7659 74.5964 99.6407 74.3399 99.7216 74.1045C99.8026 73.8691 100.059 73.7439 100.295 73.8248C100.53 73.9058 100.655 74.1622 100.574 74.3976C100.493 74.6331 100.237 74.7583 100.001 74.6773Z" fill="black"/>
<path d="M100.946 75.7331C100.711 75.6522 100.585 75.3957 100.666 75.1603C100.747 74.9249 101.004 74.7997 101.239 74.8807C101.475 74.9616 101.6 75.2181 101.519 75.4535C101.438 75.6889 101.182 75.8141 100.946 75.7331Z" fill="black"/>
<path d="M102.234 75.7914C101.999 75.7104 101.873 75.4539 101.954 75.2185C102.035 74.9831 102.292 74.8579 102.527 74.9389C102.763 75.0198 102.888 75.2763 102.807 75.5117C102.726 75.7471 102.469 75.8723 102.234 75.7914Z" fill="black"/>
<path d="M103.547 75.6658C103.311 75.5848 103.186 75.3284 103.267 75.093C103.348 74.8576 103.604 74.7323 103.84 74.8133C104.075 74.8943 104.2 75.1507 104.12 75.3861C104.039 75.6216 103.782 75.7467 103.547 75.6658Z" fill="black"/>
<path d="M103.547 75.6658C103.311 75.5848 103.186 75.3284 103.267 75.093C103.348 74.8576 103.604 74.7323 103.84 74.8133C104.075 74.8943 104.2 75.1507 104.12 75.3861C104.039 75.6216 103.782 75.7467 103.547 75.6658Z" fill="black"/>
<path d="M104.504 76.5722C104.269 76.4912 104.144 76.2347 104.225 75.9993C104.306 75.7639 104.562 75.6387 104.797 75.7197C105.033 75.8007 105.158 76.0571 105.077 76.2925C104.996 76.5279 104.74 76.6531 104.504 76.5722Z" fill="black"/>
<path d="M103.306 76.8139C103.07 76.7329 102.945 76.4765 103.026 76.2411C103.107 76.0057 103.363 75.8804 103.599 75.9614C103.834 76.0424 103.96 76.2988 103.879 76.5342C103.798 76.7697 103.541 76.8948 103.306 76.8139Z" fill="black"/>
<path d="M101.912 76.9502C101.677 76.8693 101.552 76.6128 101.633 76.3774C101.714 76.142 101.97 76.0168 102.206 76.0977C102.441 76.1787 102.566 76.4352 102.485 76.6706C102.404 76.906 102.148 77.0312 101.912 76.9502Z" fill="black"/>
<path d="M100.44 76.9823C100.204 76.9013 100.079 76.6449 100.16 76.4095C100.241 76.1741 100.497 76.0488 100.733 76.1298C100.968 76.2107 101.094 76.4672 101.013 76.7026C100.932 76.938 100.675 77.0632 100.44 76.9823Z" fill="black"/>
<path d="M101.385 78.0381C101.149 77.9571 101.024 77.7007 101.105 77.4653C101.186 77.2299 101.442 77.1046 101.678 77.1856C101.913 77.2666 102.038 77.523 101.957 77.7585C101.876 77.9939 101.62 78.119 101.385 78.0381Z" fill="black"/>
<path d="M102.672 78.0963C102.437 78.0154 102.312 77.7589 102.393 77.5235C102.473 77.2881 102.73 77.1629 102.965 77.2438C103.201 77.3248 103.326 77.5812 103.245 77.8167C103.164 78.0521 102.908 78.1773 102.672 78.0963Z" fill="black"/>
<path d="M103.985 77.9708C103.749 77.8898 103.624 77.6333 103.705 77.3979C103.786 77.1625 104.043 77.0373 104.278 77.1183C104.513 77.1992 104.639 77.4557 104.558 77.6911C104.477 77.9265 104.22 78.0517 103.985 77.9708Z" fill="black"/>
<path d="M103.985 77.9708C103.749 77.8898 103.624 77.6333 103.705 77.3979C103.786 77.1625 104.043 77.0373 104.278 77.1183C104.513 77.1992 104.639 77.4557 104.558 77.6911C104.477 77.9265 104.22 78.0517 103.985 77.9708Z" fill="black"/>
<path d="M109.35 77.4695C109.115 77.3885 108.99 77.132 109.071 76.8966C109.152 76.6612 109.408 76.536 109.644 76.617C109.879 76.6979 110.004 76.9544 109.923 77.1898C109.842 77.4252 109.586 77.5504 109.35 77.4695Z" fill="black"/>
<path d="M108.152 77.7112C107.916 77.6302 107.791 77.3737 107.872 77.1383C107.953 76.9029 108.21 76.7777 108.445 76.8587C108.68 76.9396 108.805 77.1961 108.725 77.4315C108.644 77.6669 108.387 77.7921 108.152 77.7112Z" fill="black"/>
<path d="M106.759 77.8475C106.523 77.7665 106.398 77.51 106.479 77.2746C106.56 77.0392 106.816 76.914 107.052 76.995C107.287 77.076 107.412 77.3324 107.331 77.5678C107.25 77.8032 106.994 77.9284 106.759 77.8475Z" fill="black"/>
<path d="M105.286 77.8796C105.05 77.7986 104.925 77.5421 105.006 77.3067C105.087 77.0713 105.343 76.9461 105.579 77.0271C105.814 77.108 105.939 77.3645 105.859 77.5999C105.778 77.8353 105.521 77.9605 105.286 77.8796Z" fill="black"/>
<path d="M106.23 78.9353C105.995 78.8544 105.87 78.5979 105.951 78.3625C106.032 78.1271 106.288 78.0019 106.524 78.0829C106.759 78.1638 106.884 78.4203 106.803 78.6557C106.722 78.8911 106.466 79.0163 106.23 78.9353Z" fill="black"/>
<path d="M107.518 78.9936C107.283 78.9126 107.158 78.6562 107.239 78.4208C107.32 78.1853 107.576 78.0602 107.812 78.1411C108.047 78.2221 108.172 78.4785 108.091 78.7139C108.01 78.9493 107.754 79.0746 107.518 78.9936Z" fill="black"/>
<path d="M108.831 78.868C108.596 78.7871 108.471 78.5306 108.551 78.2952C108.632 78.0598 108.889 77.9346 109.124 78.0155C109.36 78.0965 109.485 78.353 109.404 78.5884C109.323 78.8238 109.066 78.949 108.831 78.868Z" fill="black"/>
<path d="M108.831 78.868C108.596 78.7871 108.471 78.5306 108.551 78.2952C108.632 78.0598 108.889 77.9346 109.124 78.0155C109.36 78.0965 109.485 78.353 109.404 78.5884C109.323 78.8238 109.066 78.949 108.831 78.868Z" fill="black"/>
<path d="M108.936 80.4471C108.716 80.3306 108.632 80.0578 108.748 79.8378C108.865 79.6179 109.138 79.534 109.358 79.6506C109.578 79.7672 109.662 80.0401 109.545 80.26C109.428 80.48 109.156 80.5637 108.936 80.4471Z" fill="black"/>
<path d="M107.714 80.4995C107.494 80.3829 107.41 80.11 107.527 79.8901C107.643 79.6701 107.916 79.5864 108.136 79.703C108.356 79.8195 108.44 80.0923 108.323 80.3123C108.206 80.5322 107.934 80.6161 107.714 80.4995Z" fill="black"/>
<path d="M106.316 80.4174C106.096 80.3009 106.013 80.028 106.129 79.8081C106.246 79.5881 106.519 79.5043 106.739 79.6209C106.958 79.7375 107.042 80.0103 106.926 80.2303C106.809 80.4502 106.536 80.534 106.316 80.4174Z" fill="black"/>
<path d="M104.857 80.22C104.637 80.1034 104.553 79.8306 104.67 79.6106C104.786 79.3907 105.059 79.3069 105.279 79.4235C105.499 79.5401 105.583 79.8129 105.466 80.0329C105.35 80.2529 105.077 80.3366 104.857 80.22Z" fill="black"/>
<path d="M105.626 81.4099C105.406 81.2933 105.322 81.0205 105.438 80.8006C105.555 80.5806 105.828 80.4968 106.048 80.6134C106.268 80.73 106.352 81.0028 106.235 81.2227C106.118 81.4427 105.846 81.5265 105.626 81.4099Z" fill="black"/>
<path d="M106.889 81.6678C106.669 81.5512 106.585 81.2783 106.702 81.0584C106.818 80.8384 107.091 80.7547 107.311 80.8713C107.531 80.9879 107.615 81.2606 107.498 81.4806C107.382 81.7005 107.109 81.7844 106.889 81.6678Z" fill="black"/>
<path d="M108.205 81.7479C107.985 81.6313 107.901 81.3585 108.018 81.1385C108.134 80.9186 108.407 80.8348 108.627 80.9513C108.847 81.0679 108.931 81.3408 108.814 81.5607C108.698 81.7807 108.425 81.8644 108.205 81.7479Z" fill="black"/>
<path d="M108.205 81.7479C107.985 81.6313 107.901 81.3585 108.018 81.1385C108.134 80.9186 108.407 80.8348 108.627 80.9513C108.847 81.0679 108.931 81.3408 108.814 81.5607C108.698 81.7807 108.425 81.8644 108.205 81.7479Z" fill="black"/>
<path d="M109.123 82.8112C108.903 82.6946 108.82 82.4217 108.936 82.2018C109.053 81.9818 109.326 81.8981 109.546 82.0146C109.766 82.1312 109.849 82.404 109.733 82.624C109.616 82.8439 109.343 82.9277 109.123 82.8112Z" fill="black"/>
<path d="M107.902 82.8635C107.682 82.7469 107.598 82.4741 107.715 82.2541C107.831 82.0342 108.104 81.9504 108.324 82.067C108.544 82.1836 108.628 82.4563 108.511 82.6763C108.394 82.8963 108.122 82.9801 107.902 82.8635Z" fill="black"/>
<path d="M106.504 82.7815C106.284 82.6649 106.201 82.3921 106.317 82.1721C106.434 81.9522 106.707 81.8684 106.927 81.985C107.146 82.1016 107.23 82.3743 107.114 82.5943C106.997 82.8143 106.724 82.8981 106.504 82.7815Z" fill="black"/>
<path d="M105.044 82.5841C104.825 82.4675 104.741 82.1947 104.857 81.9747C104.974 81.7548 105.247 81.671 105.467 81.7876C105.687 81.9041 105.77 82.177 105.654 82.3969C105.537 82.6169 105.264 82.7007 105.044 82.5841Z" fill="black"/>
<path d="M105.814 83.774C105.594 83.6574 105.51 83.3845 105.626 83.1646C105.743 82.9446 106.016 82.8609 106.236 82.9775C106.456 83.0941 106.54 83.3668 106.423 83.5868C106.306 83.8067 106.034 83.8906 105.814 83.774Z" fill="black"/>
<path d="M107.077 84.0318C106.857 83.9152 106.773 83.6424 106.889 83.4224C107.006 83.2025 107.279 83.1187 107.499 83.2353C107.719 83.3519 107.802 83.6247 107.686 83.8446C107.569 84.0646 107.297 84.1484 107.077 84.0318Z" fill="black"/>
<path d="M108.393 84.1119C108.173 83.9953 108.089 83.7225 108.206 83.5026C108.322 83.2826 108.595 83.1988 108.815 83.3154C109.035 83.432 109.119 83.7048 109.002 83.9248C108.886 84.1447 108.613 84.2285 108.393 84.1119Z" fill="black"/>
<path d="M108.393 84.1119C108.173 83.9953 108.089 83.7225 108.206 83.5026C108.322 83.2826 108.595 83.1988 108.815 83.3154C109.035 83.432 109.119 83.7048 109.002 83.9248C108.886 84.1447 108.613 84.2285 108.393 84.1119Z" fill="black"/>
<path d="M104.279 81.2315C104.059 81.1149 103.975 80.8421 104.092 80.6221C104.209 80.4022 104.481 80.3184 104.701 80.435C104.921 80.5516 105.005 80.8244 104.889 81.0443C104.772 81.2643 104.499 81.3481 104.279 81.2315Z" fill="black"/>
<path d="M103.057 81.2838C102.837 81.1673 102.754 80.8945 102.87 80.6745C102.987 80.4546 103.26 80.3707 103.48 80.4873C103.7 80.6039 103.783 80.8768 103.667 81.0967C103.55 81.3167 103.277 81.4004 103.057 81.2838Z" fill="black"/>
<path d="M101.66 81.2018C101.44 81.0852 101.356 80.8124 101.473 80.5924C101.589 80.3725 101.862 80.2887 102.082 80.4053C102.302 80.5219 102.386 80.7947 102.269 81.0147C102.153 81.2346 101.88 81.3184 101.66 81.2018Z" fill="black"/>
<path d="M100.2 81.0044C99.98 80.8878 99.8963 80.615 100.013 80.3951C100.129 80.1751 100.402 80.0913 100.622 80.2079C100.842 80.3245 100.926 80.5973 100.809 80.8173C100.693 81.0372 100.42 81.121 100.2 81.0044Z" fill="black"/>
<path d="M100.969 82.1943C100.749 82.0777 100.666 81.805 100.782 81.585C100.899 81.3651 101.172 81.2812 101.391 81.3978C101.611 81.5144 101.695 81.7873 101.579 82.0072C101.462 82.2272 101.189 82.3109 100.969 82.1943Z" fill="black"/>
<path d="M102.232 82.4521C102.012 82.3356 101.929 82.0627 102.045 81.8428C102.162 81.6228 102.435 81.539 102.655 81.6556C102.874 81.7722 102.958 82.045 102.842 82.265C102.725 82.4849 102.452 82.5687 102.232 82.4521Z" fill="black"/>
<path d="M103.549 82.5323C103.329 82.4157 103.245 82.1428 103.362 81.9229C103.478 81.7029 103.751 81.6192 103.971 81.7357C104.191 81.8523 104.275 82.1251 104.158 82.3451C104.041 82.565 103.769 82.6488 103.549 82.5323Z" fill="black"/>
<path d="M103.549 82.5323C103.329 82.4157 103.245 82.1428 103.362 81.9229C103.478 81.7029 103.751 81.6192 103.971 81.7357C104.191 81.8523 104.275 82.1251 104.158 82.3451C104.041 82.565 103.769 82.6488 103.549 82.5323Z" fill="black"/>
<path d="M104.354 83.5766C104.134 83.46 104.05 83.1872 104.167 82.9672C104.283 82.7473 104.556 82.6635 104.776 82.7801C104.996 82.8966 105.08 83.1695 104.963 83.3894C104.847 83.6094 104.574 83.6932 104.354 83.5766Z" fill="black"/>
<path d="M103.132 83.6289C102.912 83.5123 102.828 83.2395 102.945 83.0196C103.062 82.7996 103.334 82.7158 103.554 82.8324C103.774 82.949 103.858 83.2218 103.742 83.4418C103.625 83.6617 103.352 83.7455 103.132 83.6289Z" fill="black"/>
<path d="M101.735 83.5469C101.515 83.4303 101.431 83.1575 101.548 82.9375C101.664 82.7176 101.937 82.6338 102.157 82.7504C102.377 82.8669 102.461 83.1398 102.344 83.3597C102.227 83.5797 101.955 83.6635 101.735 83.5469Z" fill="black"/>
<path d="M100.275 83.3495C100.055 83.2329 99.9708 82.96 100.087 82.7401C100.204 82.5201 100.477 82.4363 100.697 82.5529C100.917 82.6695 101 82.9423 100.884 83.1623C100.767 83.3822 100.495 83.466 100.275 83.3495Z" fill="black"/>
<path d="M101.044 84.5394C100.824 84.4228 100.74 84.15 100.857 83.93C100.973 83.7101 101.246 83.6263 101.466 83.7429C101.686 83.8594 101.77 84.1323 101.653 84.3522C101.537 84.5722 101.264 84.656 101.044 84.5394Z" fill="black"/>
<path d="M102.307 84.7972C102.087 84.6806 102.003 84.4078 102.12 84.1879C102.236 83.9679 102.509 83.8841 102.729 84.0007C102.949 84.1173 103.033 84.3901 102.916 84.6101C102.8 84.83 102.527 84.9138 102.307 84.7972Z" fill="black"/>
<path d="M103.623 84.8773C103.403 84.7607 103.319 84.4879 103.436 84.2679C103.552 84.048 103.825 83.9642 104.045 84.0808C104.265 84.1974 104.349 84.4702 104.232 84.6901C104.116 84.9101 103.843 84.9939 103.623 84.8773Z" fill="black"/>
<path d="M103.623 84.8773C103.403 84.7607 103.319 84.4879 103.436 84.2679C103.552 84.048 103.825 83.9642 104.045 84.0808C104.265 84.1974 104.349 84.4702 104.232 84.6901C104.116 84.9101 103.843 84.9939 103.623 84.8773Z" fill="black"/>
<path d="M109.001 85.2166C108.781 85.1001 108.697 84.8272 108.814 84.6073C108.931 84.3873 109.204 84.3035 109.423 84.4201C109.643 84.5367 109.727 84.8096 109.611 85.0295C109.494 85.2495 109.221 85.3332 109.001 85.2166Z" fill="black"/>
<path d="M107.78 85.269C107.56 85.1524 107.476 84.8796 107.592 84.6597C107.709 84.4397 107.982 84.3559 108.202 84.4725C108.422 84.5891 108.506 84.8619 108.389 85.0819C108.272 85.3018 108 85.3856 107.78 85.269Z" fill="black"/>
<path d="M106.382 85.1869C106.162 85.0704 106.078 84.7976 106.195 84.5776C106.312 84.3577 106.584 84.2738 106.804 84.3904C107.024 84.507 107.108 84.7799 106.992 84.9998C106.875 85.2198 106.602 85.3035 106.382 85.1869Z" fill="black"/>
<path d="M104.922 84.9895C104.702 84.8729 104.618 84.6002 104.735 84.3802C104.852 84.1603 105.124 84.0764 105.344 84.193C105.564 84.3096 105.648 84.5824 105.532 84.8024C105.415 85.0224 105.142 85.1061 104.922 84.9895Z" fill="black"/>
<path d="M105.691 86.1795C105.471 86.0629 105.388 85.7901 105.504 85.5701C105.621 85.3502 105.893 85.2664 106.113 85.383C106.333 85.4995 106.417 85.7724 106.301 85.9923C106.184 86.2123 105.911 86.2961 105.691 86.1795Z" fill="black"/>
<path d="M106.954 86.4373C106.734 86.3207 106.651 86.0479 106.767 85.828C106.884 85.608 107.157 85.5242 107.377 85.6408C107.597 85.7574 107.68 86.0302 107.564 86.2502C107.447 86.4701 107.174 86.5539 106.954 86.4373Z" fill="black"/>
<path d="M108.271 86.5174C108.051 86.4008 107.967 86.128 108.083 85.908C108.2 85.6881 108.473 85.6043 108.693 85.7209C108.913 85.8375 108.997 86.1102 108.88 86.3302C108.763 86.5502 108.491 86.634 108.271 86.5174Z" fill="black"/>
<path d="M108.271 86.5174C108.051 86.4008 107.967 86.128 108.083 85.908C108.2 85.6881 108.473 85.6043 108.693 85.7209C108.913 85.8375 108.997 86.1102 108.88 86.3302C108.763 86.5502 108.491 86.634 108.271 86.5174Z" fill="black"/>
</svg>
