<svg width="167" height="167" viewBox="0 0 167 167" fill="none" xmlns="http://www.w3.org/2000/svg">
<path d="M127.41 152.246C114.551 160.48 99.652 164.97 84.384 165.213C69.1161 165.456 54.0822 161.442 40.9673 153.621C43.2744 149.327 46.1977 145.393 49.6442 141.945C54.9619 136.602 61.4338 132.549 68.5624 130.097C75.691 127.645 83.2867 126.861 90.766 127.803C98.2453 128.745 105.409 131.389 111.707 135.532C118.005 139.675 123.269 145.206 127.096 151.701C127.197 151.877 127.308 152.061 127.41 152.246V152.246Z" fill="#6C63FF"/>
<path d="M79.3363 104.998C97.7497 104.998 112.677 90.0708 112.677 71.6573C112.677 53.2439 97.7497 38.3169 79.3363 38.3169C60.9229 38.3169 45.9958 53.2439 45.9958 71.6573C45.9958 90.0708 60.9229 104.998 79.3363 104.998Z" fill="#2F2E41"/>
<path d="M106.938 96.0839C114.983 81.3683 109.574 62.9178 94.8588 54.8735C80.1433 46.8293 61.6927 52.2374 53.6484 66.953C45.6042 81.6686 51.0124 100.119 65.728 108.163C80.4435 116.208 98.894 110.799 106.938 96.0839Z" fill="#FFB8B8"/>
<path d="M83.0801 0C61.0551 0.0244835 39.9391 8.784 24.3641 24.3571C8.78919 39.9301 0.0271612 61.0451 0 83.07C0.00338582 89.7889 0.829495 96.482 2.45996 103C2.62986 103.67 2.79988 104.34 2.97998 105C7.77198 122.569 18.2102 138.075 32.6854 149.125C47.1606 160.176 64.8689 166.158 83.0801 166.15C101.295 166.15 119.005 160.165 133.486 149.116C147.968 138.068 158.418 122.568 163.23 105C163.41 104.33 163.58 103.67 163.74 103C166.752 90.7627 166.943 78.0006 164.298 65.6787C161.653 53.3568 156.24 41.7977 148.47 31.8754C140.7 21.9531 130.775 13.9274 119.447 8.40521C108.118 2.88299 95.6827 0.008812 83.0801 0V0ZM161.84 103C161.68 103.67 161.5 104.34 161.31 105C157.936 117.016 151.84 128.094 143.494 137.374C135.148 146.654 124.777 153.887 113.185 158.513C101.593 163.138 89.0911 165.032 76.6492 164.046C64.2072 163.061 52.1594 159.223 41.4399 152.83C23.6244 142.109 10.5593 125.007 4.8999 105C4.7099 104.33 4.52979 103.67 4.35999 103C2.69351 96.4877 1.85036 89.7921 1.85022 83.07C1.86317 71.5634 4.32063 60.1909 9.06006 49.7057C13.7995 39.2206 20.7127 29.862 29.3416 22.25C37.9705 14.6379 48.1182 8.94613 59.1127 5.55154C70.1071 2.15696 81.6973 1.13706 93.1156 2.55945C104.534 3.98183 115.52 7.81403 125.345 13.8022C135.171 19.7903 143.612 27.7978 150.11 37.2942C156.608 46.7905 161.014 57.5591 163.036 68.8866C165.058 80.214 164.65 91.8419 161.84 103H161.84Z" fill="#3F3D56"/>
</svg>
