<svg width="167" height="167" viewBox="0 0 167 167" fill="none" xmlns="http://www.w3.org/2000/svg">
<g id="g1835">
<path id="path1751" d="M127.41 152.246C114.551 160.48 99.652 164.97 84.384 165.213C69.1161 165.456 54.0822 161.442 40.9673 153.621C43.2744 149.327 46.1977 145.393 49.6442 141.945C54.9619 136.602 61.4338 132.549 68.5624 130.097C75.691 127.645 83.2867 126.861 90.766 127.803C98.2453 128.745 105.409 131.389 111.707 135.532C118.005 139.675 123.269 145.206 127.096 151.701C127.197 151.877 127.308 152.061 127.41 152.246V152.246Z" fill="#6C63FF"/>
<path id="path1775" d="M68.9191 80.3015C68.0947 80.3015 67.2784 80.4638 66.5167 80.7793C65.7551 81.0947 65.063 81.5571 64.4801 82.14C63.8972 82.7229 63.4348 83.4149 63.1194 84.1766C62.8039 84.9382 62.6415 85.7545 62.6416 86.5789C62.6415 87.4033 62.8039 88.2196 63.1194 88.9812C63.4348 89.7428 63.8972 90.4349 64.4801 91.0178C65.063 91.6007 65.7551 92.0631 66.5167 92.3785C67.2784 92.694 68.0947 92.8563 68.9191 92.8562C69.7434 92.8563 70.5597 92.6939 71.3213 92.3785C72.0829 92.063 72.775 91.6007 73.3579 91.0177C73.9408 90.4348 74.4032 89.7428 74.7186 88.9812C75.0341 88.2196 75.1963 87.4032 75.1963 86.5789C75.1963 85.7545 75.0341 84.9382 74.7186 84.1766C74.4032 83.415 73.9408 82.7229 73.3579 82.14C72.775 81.5571 72.0829 81.0947 71.3213 80.7793C70.5597 80.4638 69.7434 80.3015 68.9191 80.3015V80.3015ZM68.847 81.1883C68.871 81.1881 68.8951 81.1881 68.9191 81.1883C70.3487 81.1884 71.7197 81.7564 72.7306 82.7673C73.7415 83.7782 74.3094 85.1493 74.3096 86.5789C74.3094 88.0085 73.7415 89.3795 72.7306 90.3905C71.7197 91.4014 70.3487 91.9694 68.9191 91.9695C67.4894 91.9694 66.1183 91.4014 65.1074 90.3905C64.0965 89.3796 63.5285 88.0085 63.5283 86.5789C63.5283 85.1617 64.0865 83.8015 65.0818 82.7926C66.0771 81.7838 67.4296 81.2074 68.8467 81.1883H68.847Z" fill="#2F2E41"/>
<path id="path1777" d="M90.7301 80.3015C89.9057 80.3015 89.0894 80.4638 88.3278 80.7793C87.5661 81.0947 86.8741 81.5571 86.2911 82.14C85.7082 82.7229 85.2459 83.4149 84.9304 84.1766C84.615 84.9382 84.4526 85.7545 84.4526 86.5789C84.4526 87.4033 84.615 88.2196 84.9304 88.9812C85.2459 89.7428 85.7082 90.4349 86.2911 91.0178C86.8741 91.6007 87.5661 92.0631 88.3278 92.3785C89.0894 92.694 89.9057 92.8563 90.7301 92.8562C91.5545 92.8563 92.3707 92.6939 93.1323 92.3785C93.8939 92.063 94.586 91.6007 95.1689 91.0177C95.7519 90.4348 96.2142 89.7428 96.5297 88.9812C96.8451 88.2196 97.0074 87.4032 97.0073 86.5789C97.0074 85.7545 96.8451 84.9382 96.5297 84.1766C96.2142 83.415 95.7519 82.7229 95.1689 82.14C94.586 81.5571 93.8939 81.0947 93.1323 80.7793C92.3707 80.4638 91.5545 80.3015 90.7301 80.3015V80.3015ZM90.6581 81.1883C90.6821 81.1881 90.7061 81.1881 90.7301 81.1883C92.1597 81.1884 93.5307 81.7564 94.5416 82.7673C95.5525 83.7782 96.1204 85.1493 96.1206 86.5789C96.1204 88.0085 95.5525 89.3795 94.5416 90.3905C93.5307 91.4014 92.1597 91.9694 90.7301 91.9695C89.3005 91.9694 87.9294 91.4014 86.9185 90.3905C85.9075 89.3796 85.3395 88.0085 85.3394 86.5789C85.3394 85.1617 85.8975 83.8015 86.8928 82.7926C87.8882 81.7838 89.2406 81.2074 90.6577 81.1883H90.6581Z" fill="#2F2E41"/>
<path id="path1779" d="M74.8594 86.9402C74.8594 86.9402 78.8089 83.0825 84.9628 87.1239" stroke="black"/>
<path id="circle1755" d="M106.938 96.0838C114.983 81.3682 109.574 62.9177 94.8588 54.8735C80.1433 46.8292 61.6927 52.2374 53.6484 66.9529C45.6042 81.6685 51.0124 100.119 65.728 108.163C80.4435 116.208 98.894 110.799 106.938 96.0838Z" fill="#E38E56"/>
<path id="path1781" d="M68.9191 80.3015C68.0947 80.3015 67.2784 80.4638 66.5167 80.7793C65.7551 81.0947 65.063 81.5571 64.4801 82.14C63.8972 82.7229 63.4348 83.4149 63.1194 84.1766C62.8039 84.9382 62.6415 85.7545 62.6416 86.5789C62.6415 87.4033 62.8039 88.2196 63.1194 88.9812C63.4348 89.7428 63.8972 90.4349 64.4801 91.0178C65.063 91.6007 65.7551 92.0631 66.5167 92.3785C67.2784 92.694 68.0947 92.8563 68.9191 92.8562C69.7434 92.8563 70.5597 92.6939 71.3213 92.3785C72.0829 92.063 72.775 91.6007 73.3579 91.0177C73.9408 90.4348 74.4032 89.7428 74.7186 88.9812C75.0341 88.2196 75.1963 87.4032 75.1963 86.5789C75.1963 85.7545 75.0341 84.9382 74.7186 84.1766C74.4032 83.415 73.9408 82.7229 73.3579 82.14C72.775 81.5571 72.0829 81.0947 71.3213 80.7793C70.5597 80.4638 69.7434 80.3015 68.9191 80.3015V80.3015ZM68.847 81.1883C68.871 81.1881 68.8951 81.1881 68.9191 81.1883C70.3487 81.1884 71.7197 81.7564 72.7306 82.7673C73.7415 83.7782 74.3094 85.1493 74.3096 86.5789C74.3094 88.0085 73.7415 89.3795 72.7306 90.3905C71.7197 91.4014 70.3487 91.9694 68.9191 91.9695C67.4894 91.9694 66.1183 91.4014 65.1074 90.3905C64.0965 89.3796 63.5285 88.0085 63.5283 86.5789C63.5283 85.1617 64.0865 83.8015 65.0818 82.7926C66.0771 81.7838 67.4296 81.2074 68.8467 81.1883H68.847Z" fill="#2F2E41"/>
<path id="circle1753" d="M86.2878 78.0387C71.596 79.7968 53.2634 90.183 51.7168 78.0654C50.1702 65.9478 62.4497 52.9387 77.1415 51.1806C91.8331 49.4226 109.012 56.1655 110.559 68.2831C112.106 80.4007 114.731 95.8737 96.0627 79.7257" fill="black"/>
<path id="path1783" d="M90.7301 80.3015C89.9057 80.3015 89.0894 80.4638 88.3278 80.7793C87.5661 81.0947 86.8741 81.5571 86.2911 82.14C85.7082 82.7229 85.2459 83.4149 84.9304 84.1766C84.615 84.9382 84.4526 85.7545 84.4526 86.5789C84.4526 87.4033 84.615 88.2196 84.9304 88.9812C85.2459 89.7428 85.7082 90.4349 86.2911 91.0178C86.8741 91.6007 87.5661 92.0631 88.3278 92.3785C89.0894 92.694 89.9057 92.8563 90.7301 92.8562C91.5545 92.8563 92.3707 92.6939 93.1323 92.3785C93.8939 92.063 94.586 91.6007 95.1689 91.0177C95.7519 90.4348 96.2142 89.7428 96.5297 88.9812C96.8451 88.2196 97.0074 87.4032 97.0073 86.5789C97.0074 85.7545 96.8451 84.9382 96.5297 84.1766C96.2142 83.415 95.7519 82.7229 95.1689 82.14C94.586 81.5571 93.8939 81.0947 93.1323 80.7793C92.3707 80.4638 91.5545 80.3015 90.7301 80.3015V80.3015ZM90.6581 81.1883C90.6821 81.1881 90.7061 81.1881 90.7301 81.1883C92.1597 81.1884 93.5307 81.7564 94.5416 82.7673C95.5525 83.7782 96.1204 85.1493 96.1206 86.5789C96.1204 88.0085 95.5525 89.3795 94.5416 90.3905C93.5307 91.4014 92.1597 91.9694 90.7301 91.9695C89.3005 91.9694 87.9294 91.4014 86.9185 90.3905C85.9075 89.3796 85.3395 88.0085 85.3394 86.5789C85.3394 85.1617 85.8975 83.8015 86.8928 82.7926C87.8882 81.7838 89.2406 81.2074 90.6577 81.1883H90.6581Z" fill="#2F2E41"/>
<path id="path1757" d="M83.0802 0C61.0553 0.0244835 39.9392 8.78401 24.3643 24.3571C8.78931 39.9301 0.0271602 61.045 0 83.07C0.00338582 89.7888 0.829617 96.482 2.46008 103C2.62998 103.67 2.8 104.34 2.9801 105C7.77211 122.569 18.2104 138.075 32.6855 149.125C47.1607 160.176 64.869 166.158 83.0802 166.15C101.295 166.15 119.005 160.165 133.486 149.116C147.968 138.068 158.418 122.568 163.23 105C163.41 104.33 163.58 103.67 163.74 103C166.753 90.7627 166.943 78.0006 164.298 65.6787C161.653 53.3568 156.24 41.7977 148.47 31.8754C140.7 21.9531 130.775 13.9274 119.447 8.40521C108.119 2.88299 95.6829 0.00881185 83.0802 0ZM161.84 103C161.68 103.67 161.5 104.34 161.31 105C157.936 117.016 151.84 128.094 143.494 137.374C135.148 146.654 124.777 153.887 113.185 158.513C101.593 163.138 89.0911 165.032 76.6492 164.046C64.2072 163.061 52.1595 159.223 41.4401 152.83C23.6245 142.109 10.5594 125.007 4.90002 105C4.71002 104.33 4.52979 103.67 4.35999 103C2.69351 96.4877 1.85036 89.7921 1.85022 83.07C1.86317 71.5634 4.32075 60.1909 9.06018 49.7058C13.7996 39.2206 20.7128 29.862 29.3417 22.25C37.9706 14.6379 48.1182 8.94611 59.1127 5.55153C70.1071 2.15695 81.6974 1.13708 93.1157 2.55946C104.534 3.98185 115.52 7.81403 125.345 13.8022C135.171 19.7903 143.612 27.7978 150.11 37.2942C156.608 46.7905 161.014 57.5591 163.036 68.8866C165.058 80.214 164.65 91.8419 161.84 103H161.84Z" fill="#3F3D56"/>
<path id="path1765" d="M69.2302 77.8246C69.2302 77.8246 56.0152 69.3726 50.6548 72.6649C50.6548 72.6649 52.8588 61.5928 67.521 56.9325L69.2302 77.8246Z" fill="black" stroke="black"/>
<path id="path1785" d="M74.8594 86.9402C74.8594 86.9402 78.8089 83.0825 84.9628 87.1239" stroke="black"/>
<path id="path1767" d="M91.8157 66.1823C91.8157 66.1823 86.0878 80.7859 79.8159 81.2713C79.8159 81.2713 88.1048 88.9358 102.707 84.0925L91.8157 66.1823Z" fill="black" stroke="black"/>
</g>
</svg>
